<svg viewBox = "0 0 41 37" width="41" height="37" xmlns="http://www.w3.org/2000/svg"><g transform="matrix(1 0 0 1 20.5 18.5)"  ><g style=""   ><g transform="matrix(1 0 0 1 -6.1 6.84)"  ><path style="stroke: none; stroke-width: 1; stroke-dasharray: none; stroke-linecap: butt; stroke-dashoffset: 0; stroke-linejoin: miter; stroke-miterlimit: 4; fill: rgb(206,208,248); fill-rule: nonzero; opacity: 1;"  transform=" translate(-14.4, -25.34)" d="M 26.0226 29.1498 C 25.2173 28.99 24.691 28.2107 24.8493 27.4128 C 25.0079 26.6139 25.7919 26.0947 26.5972 26.2545 C 26.7924 26.2932 26.995 26.2536 27.1593 26.1448 C 27.3248 26.0352 27.4392 25.865 27.4776 25.6716 L 27.9978 23.0453 C 28.4383 20.8255 26.9733 18.6578 24.7329 18.2132 L 7.56871 14.8067 C 5.3284 14.3621 3.14658 15.806 2.70603 18.0258 L 2.16708 20.7363 C 2.1287 20.9297 2.16935 21.1307 2.28045 21.2952 C 2.39077 21.4585 2.56288 21.5725 2.75807 21.6112 C 3.59083 21.7765 4.10227 22.4871 3.94796 23.2647 C 3.7896 24.0626 3.00553 24.5818 2.20024 24.422 C 1.79416 24.3414 1.39978 24.6025 1.31992 25.0049 L 0.799129 27.629 C 0.358575 29.8489 1.82245 32.0173 4.06374 32.4622 L 21.2299 35.869 C 23.4712 36.3138 25.6523 34.8687 26.0928 32.6489 L 26.6136 30.0247 C 26.6935 29.6224 26.4287 29.2304 26.0226 29.1498 Z" stroke-linecap="round" /></g><g transform="matrix(1 0 0 1 2.2 -0.03)"  ><path style="stroke: none; stroke-width: 1; stroke-dasharray: none; stroke-linecap: butt; stroke-dashoffset: 0; stroke-linejoin: miter; stroke-miterlimit: 4; fill: rgb(99,106,232); fill-rule: nonzero; opacity: 1;"  transform=" translate(-22.7, -18.47)" d="M 30.0774 28.2283 C 29.5071 27.6377 29.5192 26.6974 30.1044 26.1323 C 30.6903 25.5665 31.6304 25.5873 32.2007 26.1778 C 32.339 26.321 32.528 26.404 32.725 26.4084 C 32.9235 26.4127 33.1145 26.3381 33.2563 26.2011 L 35.1815 24.3406 C 36.8095 22.7685 36.8425 20.1524 35.2559 18.5094 L 23.1001 5.92158 C 21.5135 4.27859 18.8979 4.2202 17.2699 5.79229 L 15.2813 7.71126 C 15.1394 7.84823 15.0582 8.03653 15.0556 8.23501 C 15.0531 8.43208 15.1294 8.62385 15.2677 8.767 C 15.8574 9.37772 15.8722 10.2531 15.302 10.8038 C 14.7168 11.3689 13.7767 11.3482 13.2063 10.7576 C 12.9188 10.4598 12.4459 10.4493 12.1508 10.7343 L 10.2263 12.5927 C 8.59833 14.1648 8.56395 16.7809 10.1512 18.4246 L 22.3084 31.0139 C 23.8956 32.6576 26.5114 32.7146 28.1393 31.1425 L 30.0638 29.284 C 30.3589 28.9991 30.365 28.5261 30.0774 28.2283 Z" stroke-linecap="round" /></g><g transform="matrix(1 0 0 1 2.2 -0.03)"  ><path style="stroke: none; stroke-width: 1; stroke-dasharray: none; stroke-linecap: butt; stroke-dashoffset: 0; stroke-linejoin: miter; stroke-miterlimit: 4; fill: rgb(255,255,255); fill-rule: evenodd; opacity: 1;"  transform=" translate(-22.7, -18.47)" d="M 15.2813 7.71125 L 17.2699 5.79229 C 18.8979 4.2202 21.5135 4.27859 23.1001 5.92157 L 35.2559 18.5094 C 36.8425 20.1524 36.8095 22.7685 35.1815 24.3406 L 33.2563 26.2011 C 33.1145 26.3381 32.9235 26.4127 32.725 26.4083 C 32.528 26.404 32.339 26.321 32.2007 26.1778 C 31.6304 25.5873 30.6903 25.5665 30.1044 26.1323 C 29.5192 26.6974 29.5071 27.6377 30.0774 28.2283 C 30.365 28.5261 30.3589 28.9991 30.0638 29.284 L 28.1393 31.1425 C 26.5114 32.7145 23.8956 32.6576 22.3084 31.0139 L 10.1512 18.4246 C 8.56395 16.7809 8.59833 14.1648 10.2263 12.5927 L 12.1508 10.7343 C 12.4459 10.4493 12.9188 10.4598 13.2064 10.7576 C 13.7767 11.3482 14.7168 11.3689 15.302 10.8038 C 15.8722 10.2531 15.8574 9.37771 15.2677 8.76699 C 15.1294 8.62384 15.0531 8.43207 15.0556 8.235 C 15.0582 8.03652 15.1394 7.84823 15.2813 7.71125 Z M 36.5708 25.7793 L 34.6462 27.6393 C 34.1186 28.1487 33.4103 28.4239 32.6809 28.4079 C 32.5393 28.4047 32.3993 28.3907 32.2618 28.3663 C 32.3802 29.2027 32.1143 30.0842 31.4531 30.7227 L 29.5286 32.5811 C 27.0939 34.9323 23.2124 34.8292 20.8697 32.4032 L 8.71255 19.8139 C 6.3698 17.3879 6.40226 13.5052 8.83699 11.154 L 10.7615 9.2956 C 11.4038 8.67529 12.2625 8.43591 13.0735 8.55797 C 13.0603 8.44293 13.0543 8.32648 13.0558 8.20926 C 13.0652 7.47978 13.3644 6.78199 13.892 6.27256 L 15.8806 4.3536 C 18.316 2.0023 22.1976 2.10782 24.5388 4.53226 L 36.6946 17.1201 C 39.0358 19.5445 39.0057 23.4274 36.5708 25.7793 C 36.5707 25.7795 36.571 25.7791 36.5708 25.7793 Z" stroke-linecap="round" /></g></g></g></svg>